<?xml version="1.0" encoding="utf-8"?>
<!-- Generator: Adobe Illustrator 27.9.0, SVG Export Plug-In . SVG Version: 6.00 Build 0)  -->
<!DOCTYPE svg PUBLIC "-//W3C//DTD SVG 1.1//EN" "http://www.w3.org/Graphics/SVG/1.1/DTD/svg11.dtd" [
	<!ENTITY ns_extend "http://ns.adobe.com/Extensibility/1.0/">
	<!ENTITY ns_ai "http://ns.adobe.com/AdobeIllustrator/10.0/">
	<!ENTITY ns_graphs "http://ns.adobe.com/Graphs/1.0/">
	<!ENTITY ns_vars "http://ns.adobe.com/Variables/1.0/">
	<!ENTITY ns_imrep "http://ns.adobe.com/ImageReplacement/1.0/">
	<!ENTITY ns_sfw "http://ns.adobe.com/SaveForWeb/1.0/">
	<!ENTITY ns_custom "http://ns.adobe.com/GenericCustomNamespace/1.0/">
	<!ENTITY ns_adobe_xpath "http://ns.adobe.com/XPath/1.0/">
]>
<svg version="1.1" id="Calque_1" xmlns:x="&ns_extend;" xmlns:i="&ns_ai;" xmlns:graph="&ns_graphs;"
	 xmlns="http://www.w3.org/2000/svg" xmlns:xlink="http://www.w3.org/1999/xlink" x="0px" y="0px" width="1760px" height="490px"
	 viewBox="0 0 1760 490" style="enable-background:new 0 0 1760 490;" xml:space="preserve">
<style type="text/css">
	.st0{fill:#E30613;}
	.st1{fill:#FFFFFF;}
</style>
<metadata>
	<sfw  xmlns="&ns_sfw;">
		<slices></slices>
		<sliceSourceBounds  bottomLeftOrigin="true" height="463.7" width="1735.9" x="-570" y="-652.8"></sliceSourceBounds>
	</sfw>
</metadata>
<g>
	<g>
		<rect x="1465.8" y="91.2" class="st0" width="282.1" height="282.1"/>
		<g>
			<g>
				<g>
					<path class="st1" d="M1551.6,110l-1.6,0.6v0.1l-0.1,0v24.9l-17-17.4l-1.7,1.3c-1.6,1.2-3.4,2.4-5.2,3.6
						c-1.9,1.2-3.8,2.5-5.5,3.7l-2.2,1.7l0.1,0.1l0,0l31.6,31.7v14.9h-13.8l-32.3-31.6l0,0l-0.1-0.1l-1.7,2.1
						c-2.6,3.2-5.2,7.1-7.5,10.6l-1.1,1.7l17.7,17.3h-26.3l0,0.1h-0.1l-0.4,2c-0.4,2.1-1,4.1-1.6,6.2c-0.6,2.2-1.3,4.4-1.7,6.6
						l-0.5,2.9h87.6v-87.1l-2.8,0.4C1561.3,106.8,1557.1,108,1551.6,110z"/>
					<path class="st1" d="M1732.6,190c-0.4-2.2-1.1-4.4-1.7-6.6c-0.6-2.1-1.2-4.1-1.6-6.2l-0.4-2h-0.2l0-0.1h-25.5l16.9-16.7
						l-10.2-15.1l-0.1,0.1l0,0l-31.7,31.8h-14.6v-14.2l31.4-31.5l0,0l0.1-0.1l-1.8-1.7c-3.4-3.2-6.8-5.7-11.1-8.2l-1.6-1l-16.9,17.2
						v-24.7l-0.1,0v-0.1l-1.4-0.6c-3.8-1.7-8.9-3.1-13.8-3.9l-2.8-0.4v87.1h87.6L1732.6,190z"/>
					<path class="st1" d="M1481,273.5c0.4,2.2,1.1,4.4,1.7,6.6c0.6,2.1,1.2,4.1,1.6,6.2l0.4,2h0.1l0,0.1h26.3l-17.7,17.3l10.2,15.1
						l0.1-0.1l0,0l32.5-32.4h13.8v14.8l-31.4,31.5l0,0l-0.1,0.1l1.8,1.7c3.4,3.2,7.6,5.7,11.2,7.7l1.6,0.9l16.8-16.7v25.2l0.1,0v0.1
						l1.8,0.5c4.9,1.2,9,2.4,13.1,3.6l3.1,0.9v-88.1h-87.6L1481,273.5z"/>
					<path class="st1" d="M1645.6,358.7l3.1-0.9c2-0.6,4.3-1.2,6.6-1.8c2.3-0.6,4.5-1.2,6.6-1.8l1.7-0.5v-0.2l0.1,0v-25.6l16.7,17.1
						l1.5-0.7c3.4-1.5,6.1-3.7,8.8-5.8c0.8-0.6,1.6-1.3,2.4-1.9l2.2-1.6l-0.1-0.1l0,0l-31.6-32.3v-14.3h14.6l31.5,31.6l0,0l0.1,0.1
						l1.7-2.1c2.5-3.1,5-6.8,7.5-10.5l1.1-1.6l-17-17.4h25.6l0-0.1h0.2l0.4-2c0.4-2.1,1-4.1,1.6-6.2c0.6-2.2,1.3-4.4,1.7-6.6
						l0.5-2.9h-87.6V358.7z"/>
				</g>
			</g>
		</g>
	</g>
	<g>
		<path d="M787.8,435.6h5.4v40.2h-5.4V435.6z"/>
		<path d="M817.3,435.6h5.7l21.2,32.6h0.1v-32.6h5.1v40.2h-5.9l-21-32.3h-0.1v32.3h-5.1V435.6z"/>
		<path d="M882.4,440.1H869v-4.5h32.2v4.5h-13.4v35.7h-5.4V440.1z"/>
		<path d="M920.8,435.6h27.8v4.5h-22.4v12.8h20.9v4.5h-20.9v13.9h22.6v4.5h-28V435.6z"/>
		<path d="M970.5,435.6h18.9c7.6,0,12.2,4.1,12.2,10.5c0,4.8-2.1,8.8-7,10.2v0.1c4.7,0.9,5.6,4.3,6,8.3c0.3,3.9,0.1,8.3,2.4,11.1h-6
			c-1.5-1.6-0.7-6-1.5-9.9c-0.6-3.9-1.5-7.3-6.7-7.3h-13.1v17.2h-5.4V435.6z M987,454.2c5,0,9.3-1.3,9.3-7.2c0-3.9-2.1-6.9-7.2-6.9
			h-13.3v14H987z"/>
		<path d="M1024.3,435.6h5.7l21.2,32.6h0.1v-32.6h5.1v40.2h-5.9l-21-32.3h-0.1v32.3h-5.1V435.6z"/>
		<path d="M1091.2,435.6h5.9l15.7,40.2h-5.9l-4.4-12.1h-17l-4.5,12.1h-5.5L1091.2,435.6z M1087.2,459.3h13.6l-6.7-18.8h-0.1
			L1087.2,459.3z"/>
		<path d="M1135.9,440.1h-13.4v-4.5h32.2v4.5h-13.4v35.7h-5.4V440.1z"/>
		<path d="M1174.6,435.6h5.4v40.2h-5.4V435.6z"/>
		<path d="M1221.2,434.7c12.8,0,19.3,10.1,19.3,21.1s-6.5,21.1-19.3,21.1s-19.3-10.1-19.3-21.1S1208.4,434.7,1221.2,434.7z
			 M1221.2,472.3c9.8,0,13.9-8.5,13.9-16.6s-4.1-16.6-13.9-16.6s-13.9,8.5-13.9,16.6S1211.4,472.3,1221.2,472.3z"/>
		<path d="M1262.2,435.6h5.7l21.2,32.6h0.1v-32.6h5.1v40.2h-5.9l-21-32.3h-0.1v32.3h-5.1V435.6z"/>
		<path d="M1329.1,435.6h5.9l15.7,40.2h-5.9l-4.4-12.1h-17l-4.5,12.1h-5.5L1329.1,435.6z M1325.1,459.3h13.6l-6.7-18.8h-0.1
			L1325.1,459.3z"/>
		<path d="M1369.9,435.6h5.4v35.7h21.3v4.5h-26.7V435.6z"/>
		<path d="M1450.1,435.6h18.9c7.6,0,12.2,4.1,12.2,10.5c0,4.8-2.1,8.8-7,10.2v0.1c4.7,0.9,5.6,4.3,6,8.3c0.3,3.9,0.1,8.3,2.4,11.1
			h-6c-1.5-1.6-0.7-6-1.5-9.9c-0.6-3.9-1.5-7.3-6.7-7.3h-13.1v17.2h-5.4V435.6z M1466.6,454.2c5,0,9.3-1.3,9.3-7.2
			c0-3.9-2.1-6.9-7.2-6.9h-13.3v14H1466.6z"/>
		<path d="M1508.3,435.6h27.8v4.5h-22.4v12.8h20.9v4.5h-20.9v13.9h22.6v4.5h-28V435.6z"/>
		<path d="M1573.2,435.6h5.9l15.7,40.2h-5.9l-4.4-12.1h-17l-4.5,12.1h-5.5L1573.2,435.6z M1569.2,459.3h13.6l-6.7-18.8h-0.1
			L1569.2,459.3z"/>
		<path d="M1618.3,435.6h5.4v35.7h21.3v4.5h-26.7V435.6z"/>
		<path d="M1673.2,440.1h-13.4v-4.5h32.2v4.5h-13.4v35.7h-5.4V440.1z"/>
		<path d="M1732.6,459.4v16.5h-5.4v-16.5l-15.6-23.8h6.4l12.1,19.2l11.8-19.2h6.1L1732.6,459.4z"/>
	</g>
	<g>
		<rect x="716.8" y="435.6" class="st0" width="40.5" height="40.5"/>
		<path class="st1" d="M741.9,450.9v-11.3h-9.7v11.3h-11.3v9.7h11.3V472h9.7v-11.3h11.3v-9.7H741.9z"/>
	</g>
	<g>
		<path d="M1379.8,157.6c0,10.4,8.3,19,18.2,19c10.7,0,19-8.6,19-19c0-10.4-8.3-19-19-19C1388.1,138.6,1379.8,147.2,1379.8,157.6
			 M1382.3,157.6c0-8.6,7.4-16,15.7-16c9.1,0,16.5,7.4,16.5,16c0,8.6-7.4,16-16.5,16C1389.7,173.6,1382.3,166.2,1382.3,157.6"/>
		<path d="M1391.4,148.4h9.9c3.3,0,5,1.8,5,4.9c0,2.4-0.8,3.7-2.5,4.9c1.7,0.6,2.5,2.5,2.5,4.3c0,1.2,0,3.1,0.8,4.3h-4.1
			c0-1.2,0-3.1-0.8-4.3c0-1.8-0.8-3.1-2.5-3.1h-4.1v7.4h-4.1V148.4z M1395.5,156.4h4.1c1.7,0,3.3-0.6,3.3-2.5c0-1.8-1.6-2.4-3.3-2.4
			h-4.1V156.4z"/>
	</g>
	<polygon points="865.1,170 827.2,222.6 787.6,170 716.7,170 790.9,271.6 716.7,373.2 787.6,373.2 827.2,319.4 865.1,373.2 
		937.6,373.2 863.4,271.6 937.6,170 	"/>
	<rect x="617.8" y="170" width="62.6" height="203.3"/>
	<rect x="617.8" y="94.6" width="62.6" height="47.7"/>
	<rect x="1000.3" y="170" width="62.6" height="203.3"/>
	<rect x="1000.3" y="94.6" width="62.6" height="47.7"/>
	<path d="M517.1,170v111c0,21.2-13.6,38.4-30.5,38.4c-16.8,0-30.5-17.2-30.5-38.4V170h-61v111c0,21.2-13.6,38.4-30.5,38.4
		c-16.8,0-30.5-17.2-30.5-38.4V170h-61v95.5c0,19.6,0,46.5,16.5,71c16.5,27,44.5,42.9,75.9,42.9c23.1,0,44.5-9.8,59.4-24.5
		c16.5,14.7,37.9,24.5,61,24.5c31.3,0,59.4-15.9,75.8-42.9c16.5-24.5,16.5-51.4,16.5-71V170H517.1z"/>
	<path d="M95.5,250.7c-25.8-11.3-54.1-30.8-58.7-67.3c-3.3-23.3,3.3-44.1,18.2-61.2c18.1-19.6,44.5-30.6,72.5-30.6h92.4v63.7h-77.9
		h-2.2h-12.2c0,0-27.4,0.3-28.3,16.7c-0.9,16.4,36.3,27,36.3,27l38.4,11.6l1.7,0.6c25.9,9.3,57.5,27.1,64,69
		c3.3,22-3.3,44.1-18.1,61.2c-16.5,19.6-42.9,31.8-72.5,31.8H12v-63.7h103.3l2.7,0l29.6,0c14.1,0.6,22.3-5.5,22.3-5.5s6.7-2.7,7-12
		c0.3-9.3-9.2-14.4-9.2-14.4s-7.3-4.8-19.8-8.2s-50.9-18-50.9-18L95.5,250.7z"/>
	<path d="M1165.2,373.2v-111c0-21.2,13.6-38.4,30.5-38.4c16.8,0,30.5,17.2,30.5,38.4v111h61v-111c0-21.2,13.6-38.4,30.5-38.4
		c16.8,0,30.5,17.2,30.5,38.4v111h61v-95.5c0-19.6,0-46.5-16.5-71c-16.5-27-44.5-42.9-75.9-42.9c-23.1,0-44.5,9.8-59.4,24.5
		c-16.5-14.7-37.9-24.5-61-24.5c-31.3,0-59.4,15.9-75.8,42.9c-16.5,24.5-16.5,51.4-16.5,71v95.5H1165.2z"/>
	<path d="M42.9,13.2"/>
</g>
</svg>
